<?xml version="1.0" encoding="utf-8"?>
<!-- Generator: Adobe Illustrator 23.0.0, SVG Export Plug-In . SVG Version: 6.00 Build 0)  -->
<svg version="1.1" id="Layer_1" xmlns="http://www.w3.org/2000/svg" xmlns:xlink="http://www.w3.org/1999/xlink" x="0px" y="0px"
	 viewBox="0 0 266.7 265.77" style="enable-background:new 0 0 266.7 265.77;" xml:space="preserve">
<style type="text/css">
	.st0{fill:#FF8C00;}
</style>
<path class="st0" d="M181.35,159.63c0.45,3.02-0.5,4.27-1.46,4.27c-1.04,0-2.36-1.22-3.9-3.64c-1.53-2.38-2.08-5.11-1.33-6.5
	c0.5-0.91,1.55-1.31,2.87-0.81C180.08,153.92,181.08,157.83,181.35,159.63z M167.22,166.21c3.06,2.59,3.99,5.67,2.37,7.84
	c-0.9,1.19-2.36,1.85-4.11,1.85c-1.72,0-3.47-0.64-4.68-1.7c-2.78-2.43-3.6-6.38-1.78-8.62c0.71-0.88,1.86-1.36,3.25-1.36
	C163.95,164.22,165.71,164.92,167.22,166.21z M162.1,191.2c13.19,0,27.5,4.52,43.34,18.56c1.59,1.41,3.7-0.34,2.32-2.09
	c-15.57-19.66-29.97-23.4-44.33-26.56c-17.56-3.87-26.6-13.75-32.9-24.61c-1.25-2.16-1.81-1.78-1.93,1
	c-0.14,3.39,0.1,7.89,0.86,12.3l0,0c-0.71,0.03-1.42,0.02-2.14,0.02c-25.13,0-45.5-20.37-45.5-45.5c0-25.13,20.37-45.5,45.5-45.5
	s45.5,20.37,45.5,45.5c0,1.79-0.09,3.56-0.29,5.29c-3.32-0.6-9.86-0.67-14.45-0.27c-1.73,0.15-1.48,0.95-0.18,1.19
	c15.04,2.72,25.37,12.04,27.74,28.95c0.05,0.39,0.56,0.51,0.76,0.17c6.19-10.33,9.74-22.41,9.74-35.33
	c0-38.01-30.82-68.83-68.83-68.83S58.5,86.31,58.5,124.33c0,38.01,30.82,68.83,68.83,68.83C137.41,193.16,147.41,191.2,162.1,191.2z
	"/>
</svg>
